#N canvas 0 23 1440 832 10;
#X obj 51 365 readsf~ 2;
#X msg 97 340 start;
#X obj 97 309 del 1;
#X obj 51 238 bng 15 250 50 0 empty empty empty 17 7 0 10 -262144 -1
-1;
#X obj 51 465 *~ 1;
#X obj 87 465 *~ 1;
#X obj 52 537 dac~;
#X text 948 344 samples must be 16bit wavs and stored in the same folder
as the pd patch;
#X text 949 307 < message must follow this format \, replace brackets
with the name of the file you're opening: open "file name".wav;
#X floatatom 51 -35 5 0 0 0 - - -, f 5;
#X floatatom 96 -35 5 0 0 0 - - -, f 5;
#X obj 51 58 hsl 128 15 0 127 0 0 empty empty empty -2 -8 0 10 -262144
-1 -1 1062 1;
#X obj 51 29 line;
#X obj 51 1 pack f 250;
#X obj 51 -57 notein 1;
#N canvas 693 445 729 380 set_range 1;
#X obj 17 29 inlet;
#X obj 17 137 &;
#X obj 130 137 &;
#X obj 17 215 outlet;
#X obj 130 215 outlet;
#X obj 17 158 change;
#X obj 17 108 >= 0;
#X obj 130 158 change;
#X text 17 243 1;
#X text 131 243 2;
#X obj 17 184 moses 1;
#X obj 130 184 moses 1;
#X obj 237 137 &;
#X obj 350 137 &;
#X obj 237 215 outlet;
#X obj 350 215 outlet;
#X obj 237 158 change;
#X obj 350 158 change;
#X obj 237 184 moses 1;
#X obj 350 184 moses 1;
#X text 238 243 3;
#X text 352 243 5;
#X obj 459 144 &;
#X obj 544 116 <= 127;
#X obj 459 222 outlet;
#X obj 459 165 change;
#X obj 459 191 moses 1;
#X obj 48 108 <= 25;
#X obj 167 108 <= 50;
#X obj 130 108 >= 26;
#X obj 237 108 >= 51;
#X obj 278 108 <= 75;
#X obj 360 108 >= 76;
#X obj 397 108 <= 100;
#X obj 468 113 >= 101;
#X connect 0 0 6 0;
#X connect 0 0 27 0;
#X connect 0 0 28 0;
#X connect 0 0 29 0;
#X connect 0 0 30 0;
#X connect 0 0 31 0;
#X connect 0 0 32 0;
#X connect 0 0 33 0;
#X connect 0 0 34 0;
#X connect 0 0 23 0;
#X connect 1 0 5 0;
#X connect 2 0 7 0;
#X connect 5 0 10 0;
#X connect 6 0 1 0;
#X connect 7 0 11 0;
#X connect 10 1 3 0;
#X connect 11 1 4 0;
#X connect 12 0 16 0;
#X connect 13 0 17 0;
#X connect 16 0 18 0;
#X connect 17 0 19 0;
#X connect 18 1 14 0;
#X connect 19 1 15 0;
#X connect 22 0 25 0;
#X connect 23 0 22 1;
#X connect 25 0 26 0;
#X connect 26 1 24 0;
#X connect 27 0 1 1;
#X connect 28 0 2 1;
#X connect 29 0 2 0;
#X connect 30 0 12 0;
#X connect 31 0 12 1;
#X connect 32 0 13 0;
#X connect 33 0 13 1;
#X connect 34 0 22 0;
#X restore 51 93 pd set_range;
#X obj 51 125 bng 15 250 50 0 empty empty empty 17 7 0 10 -262144 -1
-1;
#X obj 74 125 bng 15 250 50 0 empty empty empty 17 7 0 10 -262144 -1
-1;
#X obj 97 125 bng 15 250 50 0 empty empty empty 17 7 0 10 -262144 -1
-1;
#X obj 120 125 bng 15 250 50 0 empty empty empty 17 7 0 10 -262144
-1 -1;
#X obj 849 50 loadbang;
#X msg 856 -6 \; pd dsp \$1;
#X obj 849 -47 tgl 15 0 empty empty empty 17 7 0 10 -262144 -1 -1 1
1;
#X obj 202 364 readsf~ 2;
#X msg 248 339 start;
#X obj 248 308 del 1;
#X obj 202 237 bng 15 250 50 0 empty empty empty 17 7 0 10 -262144
-1 -1;
#X obj 335 365 readsf~ 2;
#X msg 381 340 start;
#X obj 381 309 del 1;
#X obj 335 238 bng 15 250 50 0 empty empty empty 17 7 0 10 -262144
-1 -1;
#X obj 446 364 readsf~ 2;
#X msg 492 339 start;
#X obj 492 308 del 1;
#X obj 446 237 bng 15 250 50 0 empty empty empty 17 7 0 10 -262144
-1 -1;
#X obj 544 373 readsf~ 2;
#X msg 606 339 start;
#X obj 606 308 del 1;
#X obj 560 237 bng 15 250 50 0 empty empty empty 17 7 0 10 -262144
-1 -1;
#X obj 147 125 bng 15 250 50 0 empty empty empty 17 7 0 10 -262144
-1 -1;
#X msg 51 276 open rollingmill.wav;
#X msg 335 276 open cello1.wav;
#X msg 446 275 open cello4.wav;
#X msg 561 275 open cello2.wav;
#X msg 202 275 open chainstrim.wav;
#X connect 0 0 4 0;
#X connect 0 1 5 0;
#X connect 1 0 0 0;
#X connect 2 0 1 0;
#X connect 3 0 2 0;
#X connect 3 0 40 0;
#X connect 4 0 6 0;
#X connect 5 0 6 1;
#X connect 9 0 13 0;
#X connect 11 0 15 0;
#X connect 12 0 11 0;
#X connect 13 0 12 0;
#X connect 14 0 9 0;
#X connect 14 1 10 0;
#X connect 15 0 16 0;
#X connect 15 1 17 0;
#X connect 15 2 18 0;
#X connect 15 3 19 0;
#X connect 15 4 39 0;
#X connect 16 0 3 0;
#X connect 17 0 26 0;
#X connect 18 0 30 0;
#X connect 19 0 34 0;
#X connect 20 0 22 0;
#X connect 22 0 21 0;
#X connect 23 0 4 0;
#X connect 23 1 5 0;
#X connect 24 0 23 0;
#X connect 25 0 24 0;
#X connect 26 0 25 0;
#X connect 26 0 44 0;
#X connect 27 0 4 0;
#X connect 27 1 5 0;
#X connect 28 0 27 0;
#X connect 29 0 28 0;
#X connect 30 0 41 0;
#X connect 30 0 29 0;
#X connect 31 0 4 0;
#X connect 31 1 5 0;
#X connect 32 0 31 0;
#X connect 33 0 32 0;
#X connect 34 0 42 0;
#X connect 34 0 33 0;
#X connect 35 0 4 0;
#X connect 35 1 5 0;
#X connect 36 0 35 0;
#X connect 37 0 36 0;
#X connect 38 0 43 0;
#X connect 38 0 37 0;
#X connect 39 0 38 0;
#X connect 40 0 0 0;
#X connect 41 0 27 0;
#X connect 42 0 31 0;
#X connect 43 0 35 0;
#X connect 44 0 23 0;
